<?xml version="1.0" encoding="UTF-8" standalone="no"?>
<!-- Created with Inkscape (http://www.inkscape.org/) -->

<svg
   xmlns:dc="http://purl.org/dc/elements/1.1/"
   xmlns:cc="http://creativecommons.org/ns#"
   xmlns:rdf="http://www.w3.org/1999/02/22-rdf-syntax-ns#"
   xmlns:svg="http://www.w3.org/2000/svg"
   xmlns="http://www.w3.org/2000/svg"
   version="1.1"
   width="1984.252"
   height="1521.4189"
   viewBox="0 0 1984.252 1521.419"
   id="Layer_1"
   xml:space="preserve"><metadata
   id="metadata16"><rdf:RDF><cc:Work
       rdf:about=""><dc:format>image/svg+xml</dc:format><dc:type
         rdf:resource="http://purl.org/dc/dcmitype/StillImage" /><dc:title></dc:title></cc:Work></rdf:RDF></metadata><defs
   id="defs14" />
<g
   transform="translate(1099.26,18.9443)"
   id="layer1">
	<g
   transform="translate(411.429,45.7143)"
   id="g3885">
	</g>
	<g
   id="g3209">
		<path
   d="m 329.499,642.258 c 0,102.02 -82.703,184.723 -184.721,184.723 -102.02,0 -184.722,-82.703 -184.722,-184.723 0,-102.02 82.702,-184.721 184.722,-184.721 102.018,0.001 184.721,82.702 184.721,184.721 z"
   id="path3204"
   style="fill:#010101" />
		<path
   d="m -341.688,-18.906 c -261.543,3.772 -460.8,288.504 -205.33,546.989 l 68.09,177.43 c 11.307,40.559 -27.044,129.814 -10.068,154.736 19.56,-38.27 24.484,-92.982 50.339,-99.289 45.47,31.785 112.737,42.568 150.751,83.557 14.205,-39.736 -43.409,-60.029 -91.669,-82.783 45.102,7.449 76.298,-16.74 109.687,22.18 4.918,-19.689 -1.29,-34.746 -14.306,-46.938 l -20.4,-27.594 c 37.713,19.816 131.569,19.693 153.136,54.414 8.334,-65.703 -70.591,-43.264 -107.833,-62.926 24.166,2.967 48.173,-8.934 72.065,-5.672 -6.402,-18.432 -17.399,-26.404 -33.649,-25.016 -128.129,30.227 -137.148,-183.979 -135.386,-244.74 171.999,-72.216 345.696,57.33 484.053,-67.052 45.299,-66.978 232.281,107.951 289.845,256.087 C 503.708,578.456 258.167,343.179 186.872,279.475 224.113,181.502 79,38.879 -52.107,101.787 -144.357,15.09 -247.087,-20.271 -341.688,-18.906 z m -69.415,529.451 c 12.543,-0.268 22.692,6.502 24.64,20.375 l 27.819,131.523 c -14.989,4.271 -21.514,19.117 -18.546,45.906 6.35,-7.418 8.965,-20.088 23.578,-15.99 l 34.444,43.842 c -117.14,9.066 -126.161,-56.439 -146.514,-164.793 6.202,-40.218 33.675,-60.413 54.579,-60.863 z"
   id="path3202"
   style="fill:#010101" />
		
			<path
   d="m 92.038,225.336 c 0,30.629 -23.636,55.459 -52.792,55.459 -29.156,0 -52.792,-24.83 -52.792,-55.459 0,-30.629 23.636,-55.458 52.792,-55.458 29.156,0 52.792,24.829 52.792,55.458 z"
   id="path4159"
   style="fill:#ffffff" />
		
			<path
   d="m 85.981,253.08 c 0,19.582 -15.111,35.456 -33.753,35.456 -18.642,0 -33.753,-15.874 -33.753,-35.456 0,-19.583 15.111,-35.457 33.753,-35.457 18.642,0 33.753,15.874 33.753,35.457 z"
   id="path4159-1"
   style="fill:#010101" />
		<path
   d="m -1099.26,993.347 1.496,512.925 h 137.735 v -201.631 l 202.889,201.631 h 169.075 L -860.078,1238.014 -609.2,993.347 h -160.62 l -194.436,188.715 1.495,-188.715 c -46.994,-0.669 -115.555,0.67 -136.499,0 z m 549.237,0 h 139.485 v 512.925 H -550.023 V 993.347 z m 691.09,0 h 139.485 v 512.925 H 141.067 V 993.347 z m 232.477,0 h 141.6 L 623.986,1160.928 735.997,993.347 H 879.71 l -172.244,252.117 177.527,260.808 H 742.336 L 623.985,1334.229 504.576,1506.272 H 364.033 L 543.674,1247.578 373.544,993.347 z"
   id="path2467"
   style="fill:#010101" />
		<path
   d="m -274.48,1146.62 47.822,103.114 c 24.193,52.167 52.229,19.972 64.26,-19.427 l 64.259,-210.413 c 10.627,-34.79 62.043,-37.161 46.327,29.89 -14.027,59.848 -109.681,295.158 7.473,243.288 l 65.755,-40.348 c 31.396,-19.267 78.289,9.912 14.944,49.314 -79.028,49.159 -146.923,96.144 -183.215,173.353 -21.312,45.338 -83.707,32.807 -82.492,-30.488 2.606,-135.796 -64.984,-176.904 -97.436,-274.374 -25.523,-76.655 31.745,-68.243 52.303,-23.909 z"
   id="path2475"
   style="fill:#010101;stroke:#010101;stroke-width:9.99950027" />
	</g>
</g>
</svg>